<?xml version="1.0" encoding="utf-8"?>
<!-- Generator: Adobe Illustrator 26.0.0, SVG Export Plug-In . SVG Version: 6.00 Build 0)  -->
<svg version="1.1" id="Layer_1" xmlns="http://www.w3.org/2000/svg" xmlns:xlink="http://www.w3.org/1999/xlink" x="0px" y="0px"
	 viewBox="0 0 116.8 100" style="enable-background:new 0 0 116.8 100;" xml:space="preserve">
<style type="text/css">
	.st0{fill-rule:evenodd;clip-rule:evenodd;fill:#707070;}
	.st1{fill-rule:evenodd;clip-rule:evenodd;fill:#FFFFFF;}
	.st2{fill-rule:evenodd;clip-rule:evenodd;}
	.st3{fill:#707070;}
	.st4{fill:#FFFFFF;}
	.st5{fill:#FFFFFF;stroke:#FFFFFF;stroke-width:2;stroke-miterlimit:10;}
</style>
<g>
	<path class="st5" d="M58.4,94.7c-11.8,0-23.2-4.7-31.6-13.1C18.4,73.2,13.7,61.8,13.7,50s4.7-23.2,13.1-31.6
		C35.2,10,46.5,5.3,58.4,5.3S81.6,10,90,18.4c8.4,8.4,13.1,19.7,13.1,31.6c0,7.8-2.1,15.5-6,22.3c-3.9,6.8-9.6,12.4-16.4,16.4
		S66.2,94.7,58.4,94.7L58.4,94.7z M58.4,11.3c-10.3,0-20.1,4.1-27.4,11.3C23.7,29.9,19.7,39.7,19.7,50S23.7,70.1,31,77.4
		c7.3,7.3,17.1,11.3,27.4,11.3s20.1-4.1,27.4-11.3C93,70.1,97.1,60.3,97.1,50S93,29.9,85.8,22.6C78.5,15.4,68.7,11.3,58.4,11.3z"/>
	<path class="st5" d="M87.6,82.8c-0.8,0-1.6-0.3-2.1-0.9l-56-56.6c-0.6-0.5-1-1.3-1-2.2c0-0.8,0.3-1.6,0.9-2.2
		c0.6-0.6,1.4-0.9,2.2-0.9c0.8,0,1.6,0.4,2.1,1.1l56,56.6c0.5,0.6,0.9,1.3,0.9,2.1c0,0.8-0.3,1.5-0.9,2.1
		C89.1,82.4,88.4,82.8,87.6,82.8L87.6,82.8z"/>
</g>
</svg>
