<?xml version="1.0" encoding="utf-8"?>
<!-- Generator: Adobe Illustrator 26.0.0, SVG Export Plug-In . SVG Version: 6.00 Build 0)  -->
<svg version="1.1" id="Layer_1" xmlns="http://www.w3.org/2000/svg" xmlns:xlink="http://www.w3.org/1999/xlink" x="0px" y="0px"
	 viewBox="0 0 116.8 100" style="enable-background:new 0 0 116.8 100;" xml:space="preserve">
<style type="text/css">
	.st0{fill-rule:evenodd;clip-rule:evenodd;fill:#707070;}
	.st1{fill-rule:evenodd;clip-rule:evenodd;fill:#FFFFFF;}
	.st2{fill-rule:evenodd;clip-rule:evenodd;}
	.st3{fill:#707070;}
	.st4{fill:#FFFFFF;}
	.st5{fill:#FFFFFF;stroke:#FFFFFF;stroke-width:2;stroke-miterlimit:10;}
</style>
<path class="st2" d="M71.6,30.1c0-7.3-5.9-13.2-13.2-13.2s-13.2,5.9-13.2,13.2c0,2.4,0.6,4.7,1.8,6.6H32.8c-0.5-2.1-0.8-4.3-0.8-6.6
	c0-14.6,11.8-26.5,26.5-26.5s26.5,11.8,26.5,26.5c0,2.3-0.3,4.5-0.8,6.6H69.8C71,34.8,71.6,32.6,71.6,30.1L71.6,30.1z M65,63.2
	c0-3.7-3-6.6-6.6-6.6c-3.7,0-6.6,3-6.6,6.6c0,1.9,0.8,3.6,2.1,4.8c-2.1,5.9-2.1,15-2.1,15H65c0,0,0-9.2-2.1-15
	C64.2,66.8,65,65.1,65,63.2z M31.9,43.4h59.6c3.7,0,6.6,3,6.6,6.6v33.1c0,7.3-5.9,13.2-13.2,13.2H31.9c-7.3,0-13.2-5.9-13.2-13.2V50
	c0-3.7,3-6.6,6.6-6.6H31.9z"/>
</svg>
