<?xml version="1.0" encoding="utf-8"?>
<!-- Generator: Adobe Illustrator 26.0.0, SVG Export Plug-In . SVG Version: 6.00 Build 0)  -->
<svg version="1.1" id="Layer_1" xmlns="http://www.w3.org/2000/svg" xmlns:xlink="http://www.w3.org/1999/xlink" x="0px" y="0px"
	 viewBox="0 0 100 100" style="enable-background:new 0 0 100 100;" xml:space="preserve">
<style type="text/css">
	.st0{fill:#707070;}
</style>
<path class="st0" d="M50,12.7c-11.8,0-22.3,5.5-29.2,14c-0.5,0.7-0.8,1.5-0.7,2.4c0.1,0.8,0.5,1.6,1.2,2.1s1.5,0.8,2.4,0.7
	c0.8-0.1,1.6-0.5,2.1-1.2c5.7-7.1,14.4-11.6,24.2-11.6c17.1,0,30.9,13.8,30.9,30.9c0,1.4,0,2.6-0.1,3.9l-7.2-7.2
	c-0.6-0.6-1.4-1-2.3-1S69.6,46,69,46.6c-0.6,0.6-0.9,1.4-0.9,2.3c0,0.9,0.4,1.7,1,2.3l11.7,11.7c0.6,0.6,1.4,0.9,2.3,0.9
	s1.7-0.3,2.3-0.9l11.7-11.7c0.8-0.8,1.1-2,0.8-3.1c-0.3-1.1-1.2-2-2.3-2.3c-1.1-0.3-2.3,0-3.1,0.8l-5.2,5.2c0-0.6,0-1.3,0-1.9
	C87.3,29.4,70.6,12.7,50,12.7L50,12.7z M16.9,36.1c-0.8,0-1.6,0.3-2.2,0.9L2.9,48.8c-0.8,0.8-1.1,2-0.8,3.1s1.2,2,2.3,2.3
	s2.3,0,3.1-0.8l5.2-5.2c0,0.6,0,1.3,0,1.9c0,20.6,16.8,37.3,37.3,37.3c11.8,0,22.3-5.5,29.2-14c0.5-0.7,0.8-1.5,0.7-2.4
	c-0.1-0.8-0.5-1.6-1.2-2.1s-1.5-0.8-2.4-0.7c-0.8,0.1-1.6,0.5-2.1,1.2c-5.7,7-14.4,11.5-24.2,11.5c-17.1,0-30.9-13.8-30.9-30.9
	c0-1.4,0-2.6,0.1-3.9l7.2,7.2c0.8,0.8,2,1.1,3.1,0.8s2-1.2,2.3-2.3c0.3-1.1,0-2.3-0.8-3.1L19.2,37.1C18.6,36.5,17.8,36.1,16.9,36.1
	L16.9,36.1z"/>
</svg>
