<?xml version="1.0" encoding="utf-8"?>
<!-- Generator: Adobe Illustrator 26.0.0, SVG Export Plug-In . SVG Version: 6.00 Build 0)  -->
<svg version="1.1" id="Layer_1" xmlns="http://www.w3.org/2000/svg" xmlns:xlink="http://www.w3.org/1999/xlink" x="0px" y="0px"
	 viewBox="0 0 100 100" style="enable-background:new 0 0 100 100;" xml:space="preserve">
<style type="text/css">
	.st0{fill-rule:evenodd;clip-rule:evenodd;fill:#707070;}
	.st1{fill-rule:evenodd;clip-rule:evenodd;fill:#FFFFFF;}
	.st2{fill:#707070;}
</style>
<path class="st1" d="M7.8,41.4h54.7c3.4,0,6.2,2.8,6.2,6.2v36.7c0,3.4-2.8,6.2-6.2,6.2l-54.7,0c-3.4,0-6.2-2.8-6.2-6.2V47.6
	C1.6,44.2,4.4,41.4,7.8,41.4L7.8,41.4z M85.4,36.9c0.2-22.4-25.7-22.2-25.9,0.4H46.7c0-37,51.7-37.1,51.7-0.4H85.4L85.4,36.9z
	 M42.2,60.2c0-8.5-14.1-8.5-14.1,0c0,2.2,1.2,4.1,3,5.3c-0.4,1.9-0.1,6.6-0.1,8.8c0,5,7.5,5,7.5,0c0-2.5,0.2-6.1,0-8.4
	C40.7,64.8,42.2,62.7,42.2,60.2L42.2,60.2z"/>
</svg>
