<?xml version="1.0" encoding="utf-8"?>
<!-- Generator: Adobe Illustrator 26.0.0, SVG Export Plug-In . SVG Version: 6.00 Build 0)  -->
<svg version="1.1" id="Layer_1" xmlns="http://www.w3.org/2000/svg" xmlns:xlink="http://www.w3.org/1999/xlink" x="0px" y="0px"
	 viewBox="0 0 116.8 100" style="enable-background:new 0 0 116.8 100;" xml:space="preserve">
<style type="text/css">
	.st0{fill-rule:evenodd;clip-rule:evenodd;fill:#707070;}
	.st1{fill-rule:evenodd;clip-rule:evenodd;fill:#FFFFFF;}
	.st2{fill-rule:evenodd;clip-rule:evenodd;}
	.st3{fill:#707070;}
	.st4{fill:#FFFFFF;}
	.st5{fill:#FFFFFF;stroke:#FFFFFF;stroke-width:2;stroke-miterlimit:10;}
</style>
<g>
	<path class="st2" d="M50.6,61.1c0-3.7-3-6.6-6.6-6.6c-3.7,0-6.6,3-6.6,6.6c0,1.9,0.8,3.6,2.1,4.8c-2.1,5.9-2.1,15-2.1,15h13.2
		c0,0,0-9.2-2.1-15C49.8,64.7,50.6,63,50.6,61.1z M17.5,41.3h59.6c3.7,0,6.6,3,6.6,6.6V81c0,7.3-5.9,13.2-13.2,13.2H17.5
		c-7.3,0-13.2-5.9-13.2-13.2V47.9c0-3.7,3-6.6,6.6-6.6H17.5z"/>
	<path class="st2" d="M77.9,28.8c0,2.1,0.6,4.1,1.5,5.8H67.1c-0.5-1.8-0.7-3.8-0.7-5.8c0-12.7,10.3-23.1,23.1-23.1
		s23.1,10.3,23.1,23.1c0,2-0.3,3.9-0.7,5.8H99.4c1-1.7,1.5-3.7,1.5-5.8c0-6.4-5.2-11.5-11.5-11.5S77.9,22.5,77.9,28.8L77.9,28.8z"/>
</g>
</svg>
