<?xml version="1.0" encoding="utf-8"?>
<!-- Generator: Adobe Illustrator 26.0.0, SVG Export Plug-In . SVG Version: 6.00 Build 0)  -->
<svg version="1.1" id="Layer_1" xmlns="http://www.w3.org/2000/svg" xmlns:xlink="http://www.w3.org/1999/xlink" x="0px" y="0px"
	 viewBox="0 0 100 100" style="enable-background:new 0 0 100 100;" xml:space="preserve">
<style type="text/css">
	.st0{fill-rule:evenodd;clip-rule:evenodd;fill:#707070;}
	.st1{fill-rule:evenodd;clip-rule:evenodd;fill:#FFFFFF;}
	.st2{fill:#707070;}
	.st3{fill:#FFFFFF;}
</style>
<g>
	<path class="st3" d="M59,61.3H41c-9,0-17.6,3.6-23.9,9.9C10.8,77.5,7.2,86.1,7.2,95c0,0.6,0.2,1.2,0.7,1.6c0.4,0.4,1,0.7,1.6,0.7
		h81.1c0.6,0,1.2-0.2,1.6-0.7s0.7-1,0.7-1.6c0-5.9-1.6-11.8-4.5-16.9c-3-5.1-7.2-9.4-12.4-12.4C70.8,62.8,64.9,61.3,59,61.3L59,61.3
		z"/>
	<path class="st3" d="M74.8,27.5c0,13.7-11.1,24.8-24.8,24.8S25.2,41.2,25.2,27.5C25.2,13.8,36.3,2.7,50,2.7S74.8,13.8,74.8,27.5"/>
</g>
</svg>
